<svg width="560" height="132" viewBox="0 0 560 132" fill="none" xmlns="http://www.w3.org/2000/svg" role="img" aria-labelledby="title desc">
  <title id="title">ZhiFlow Lite</title>
  <desc id="desc">ZhiFlow Lite product logo.</desc>
  <rect width="560" height="132" rx="24" fill="#F8FAFC"/>
  <rect x="4" y="4" width="124" height="124" rx="30" fill="#0F172A"/>
  <rect x="4" y="4" width="124" height="124" rx="30" stroke="url(#frame)" stroke-width="4"/>
  <path d="M36 45H57C67.493 45 76 53.507 76 64V88" stroke="url(#flow)" stroke-width="9" stroke-linecap="round"/>
  <path d="M96 45H75C64.507 45 56 53.507 56 64V88" stroke="url(#flow2)" stroke-width="9" stroke-linecap="round"/>
  <circle cx="36" cy="45" r="9" fill="#5B8CFF"/>
  <circle cx="96" cy="45" r="9" fill="#2DD4BF"/>
  <circle cx="56" cy="88" r="9" fill="#F59E0B"/>
  <circle cx="76" cy="88" r="9" fill="#7CCF48"/>
  <path d="M66 31V24M66 108V101M101 66H108M24 66H31" stroke="#94A3B8" stroke-width="5" stroke-linecap="round"/>
  <text x="156" y="62" fill="#0F172A" font-family="Inter, ui-sans-serif, system-ui, -apple-system, BlinkMacSystemFont, Segoe UI, sans-serif" font-size="44" font-weight="800" letter-spacing="0">ZhiFlow Lite</text>
  <text x="158" y="94" fill="#475569" font-family="Inter, ui-sans-serif, system-ui, -apple-system, BlinkMacSystemFont, Segoe UI, sans-serif" font-size="18" font-weight="600">Local-first Spec-to-PR agent workbench</text>
  <defs>
    <linearGradient id="frame" x1="12" y1="12" x2="126" y2="126" gradientUnits="userSpaceOnUse">
      <stop stop-color="#5B8CFF"/>
      <stop offset="0.52" stop-color="#2DD4BF"/>
      <stop offset="1" stop-color="#F59E0B"/>
    </linearGradient>
    <linearGradient id="flow" x1="36" y1="45" x2="78" y2="89" gradientUnits="userSpaceOnUse">
      <stop stop-color="#5B8CFF"/>
      <stop offset="1" stop-color="#7CCF48"/>
    </linearGradient>
    <linearGradient id="flow2" x1="96" y1="45" x2="54" y2="89" gradientUnits="userSpaceOnUse">
      <stop stop-color="#2DD4BF"/>
      <stop offset="1" stop-color="#F59E0B"/>
    </linearGradient>
  </defs>
</svg>
